<!DOCTYPE svg PUBLIC "-//W3C//DTD SVG 1.1//EN" "http://www.w3.org/Graphics/SVG/1.1/DTD/svg11.dtd">
<!-- Uploaded to: SVG Repo, www.svgrepo.com, Transformed by: SVG Repo Mixer Tools -->
<svg fill="#ffffff" width="800px" height="800px" viewBox="0 0 32 32" style="fill-rule:evenodd;clip-rule:evenodd;stroke-linejoin:round;stroke-miterlimit:2;" version="1.1" xml:space="preserve" xmlns="http://www.w3.org/2000/svg" xmlns:serif="http://www.serif.com/" xmlns:xlink="http://www.w3.org/1999/xlink" stroke="#ffffff">
<g id="SVGRepo_bgCarrier" stroke-width="0"/>
<g id="SVGRepo_tracerCarrier" stroke-linecap="round" stroke-linejoin="round"/>
<g id="SVGRepo_iconCarrier">
<path d="M29,11l-26,0l0,13.009c-0,1.326 0.527,2.598 1.464,3.535c0.938,0.938 2.21,1.465 3.536,1.465c4.439,-0 11.561,-0 16,-0c1.326,-0 2.598,-0.527 3.536,-1.465c0.937,-0.937 1.464,-2.209 1.464,-3.535l-0,-13.009Zm-20,13l2,0c0.552,0 1,-0.448 1,-1c0,-0.552 -0.448,-1 -1,-1l-2,0c-0.552,0 -1,0.448 -1,1c0,0.552 0.448,1 1,1Zm6,0l2,0c0.552,0 1,-0.448 1,-1c0,-0.552 -0.448,-1 -1,-1l-2,0c-0.552,0 -1,0.448 -1,1c0,0.552 0.448,1 1,1Zm6,0l2,0c0.552,0 1,-0.448 1,-1c0,-0.552 -0.448,-1 -1,-1l-2,0c-0.552,0 -1,0.448 -1,1c0,0.552 0.448,1 1,1Zm-12,-4l2,0c0.552,0 1,-0.448 1,-1c0,-0.552 -0.448,-1 -1,-1l-2,0c-0.552,0 -1,0.448 -1,1c0,0.552 0.448,1 1,1Zm6,0l2,0c0.552,0 1,-0.448 1,-1c0,-0.552 -0.448,-1 -1,-1l-2,0c-0.552,0 -1,0.448 -1,1c0,0.552 0.448,1 1,1Zm6,0l2,0c0.552,0 1,-0.448 1,-1c0,-0.552 -0.448,-1 -1,-1l-2,0c-0.552,0 -1,0.448 -1,1c0,0.552 0.448,1 1,1Zm-12,-4l2,0c0.552,-0 1,-0.448 1,-1c-0,-0.552 -0.448,-1 -1,-1l-2,0c-0.552,-0 -1,0.448 -1,1c-0,0.552 0.448,1 1,1Zm6,0l2,0c0.552,-0 1,-0.448 1,-1c-0,-0.552 -0.448,-1 -1,-1l-2,0c-0.552,-0 -1,0.448 -1,1c-0,0.552 0.448,1 1,1Zm6,0l2,0c0.552,-0 1,-0.448 1,-1c-0,-0.552 -0.448,-1 -1,-1l-2,0c-0.552,-0 -1,0.448 -1,1c-0,0.552 0.448,1 1,1Zm-11,-12.991l0,2.991c-0,0.552 -0.448,1 -1,1c-0.552,-0 -1,-0.448 -1,-1l0,-2.991c-1.326,-0 -2.598,0.527 -3.536,1.464c-0.937,0.938 -1.464,2.21 -1.464,3.536l0,0.991l26,0l-0,-0.991c0,-1.326 -0.527,-2.598 -1.464,-3.536c-0.938,-0.937 -2.21,-1.464 -3.536,-1.464l0,2.991c-0,0.552 -0.448,1 -1,1c-0.552,-0 -1,-0.448 -1,-1l0,-2.991l-12,-0Z"/>
<g id="Icon"/>
</g>
</svg>