<!DOCTYPE svg PUBLIC "-//W3C//DTD SVG 1.1//EN" "http://www.w3.org/Graphics/SVG/1.1/DTD/svg11.dtd">
<!-- Uploaded to: SVG Repo, www.svgrepo.com, Transformed by: SVG Repo Mixer Tools -->
<svg height="64px" width="64px" version="1.1" id="_x32_" xmlns="http://www.w3.org/2000/svg" xmlns:xlink="http://www.w3.org/1999/xlink" viewBox="-56.32 -56.32 624.64 624.64" xml:space="preserve" fill="#ffffff" stroke="#ffffff" stroke-width="0.00512">
<g id="SVGRepo_bgCarrier" stroke-width="0"/>
<g id="SVGRepo_tracerCarrier" stroke-linecap="round" stroke-linejoin="round"/>
<g id="SVGRepo_iconCarrier"> <style type="text/css"> .st0{fill:#000000;} </style> <g> <path class="st0" d="M96.658,148.337l-21.936-8.261c-20.049-7.552-42.424,2.583-49.975,22.616 c-7.552,20.053,2.588,42.413,22.635,49.965l49.276,18.575V148.337z"/> <path class="st0" d="M389.449,164.308c-0.222,0.79-0.439,1.539-0.656,2.308v269.03c0,7.454-3.061,14.306-7.946,19.176 c-4.88,4.9-11.722,7.946-19.175,7.946H162.979c0.966-1.577,1.849-3.234,2.529-5.038c1.292-3.45,1.903-6.961,1.903-10.411 c0-5.944-1.828-11.751-5.126-16.622c-3.312-4.871-8.059-8.765-14-11.003l-30.577-11.515h-0.01c-3.44-1.301-6.94-1.913-10.396-1.913 c-5.954,0-11.766,1.824-16.627,5.128c-4.87,3.312-8.774,8.064-11.012,14c-1.286,3.43-1.908,6.941-1.908,10.391 c0,5.975,1.84,11.782,5.137,16.642c3.313,4.861,8.06,8.774,14,11.003l30.582,11.515c3.446,1.302,6.956,1.912,10.401,1.912 c5.956,0,11.766-1.834,16.628-5.127c0.853-0.582,1.636-1.262,2.43-1.932c24.45,20.546,62.683,40.777,119.658,42.137 c118.977,2.82,150.62-85.339,167.813-181.976c0,0,41.052-185.13,43.838-194.911C502.171,86.127,415.91,71.379,389.449,164.308z"/> <path class="st0" d="M142.986,248.257V44.029h199.48v326.686h-170.9c-0.39,3.47-1.183,6.931-2.464,10.332 c-3.234,8.616-8.982,15.617-16.065,20.427c-1.864,1.262-3.811,2.366-5.827,3.322l5.852,2.199 c8.611,3.234,15.627,8.991,20.437,16.07c3.909,5.758,6.369,12.402,7.163,19.363h181.01c1.903,0,3.529-0.749,4.791-1.982 c1.242-1.262,1.982-2.898,1.982-4.802V6.782c0-1.912-0.74-3.53-1.982-4.792c-1.262-1.252-2.888-1.982-4.791-1.991H123.78 c-1.903,0.009-3.534,0.739-4.792,1.991c-1.242,1.262-1.972,2.879-1.982,4.792v230.62l17.756,6.664 C137.701,245.191,140.442,246.601,142.986,248.257z M242.724,420.739c-6.557,0-11.865-5.324-11.865-11.87 c0-6.557,5.308-11.87,11.865-11.87c6.551,0,11.869,5.313,11.869,11.87C254.593,415.415,249.275,420.739,242.724,420.739z"/> <path class="st0" d="M118.378,393.489c3.446,1.291,6.955,1.903,10.4,1.903c5.96,0,11.767-1.824,16.627-5.127 c4.87-3.312,8.765-8.074,11.007-14c1.292-3.441,1.903-6.95,1.903-10.401c0-5.956-1.823-11.772-5.126-16.622 c-3.307-4.87-8.059-8.774-13.989-11.012l-30.588-11.525c-3.44-1.291-6.946-1.903-10.406-1.903c-5.954,0-11.762,1.824-16.622,5.127 c-4.865,3.312-8.769,8.074-11.007,14.01c-1.301,3.431-1.908,6.94-1.912,10.401c0,5.954,1.833,11.761,5.136,16.632 c3.308,4.871,8.06,8.755,14.004,11.003L118.378,393.489z"/> <path class="st0" d="M109.165,312.015c3.446,1.322,6.955,1.913,10.4,1.913c5.955,0,11.776-1.814,16.637-5.128 c4.86-3.312,8.765-8.054,10.997-13.98c1.302-3.471,1.903-6.971,1.903-10.43c0.01-5.935-1.818-11.752-5.116-16.622 c-3.312-4.861-8.069-8.755-14.01-11.003L99.399,245.25c-3.451-1.302-6.951-1.912-10.406-1.912c-5.954,0-11.762,1.823-16.626,5.146 c-4.861,3.293-8.765,8.055-11.013,14c-1.286,3.43-1.898,6.941-1.898,10.391c0,5.954,1.829,11.761,5.132,16.632 c3.308,4.861,8.065,8.765,14.006,11.012L109.165,312.015z"/> <path class="st0" d="M226.638,188.541l10.781-6.941c3.456-2.208,4.461-6.802,2.238-10.253l-15.247-23.78 c-2.213-3.45-6.808-4.436-10.263-2.237c-0.079,0.048-1.286,0.818-14.335,9.198c-15.203,9.76-7.034,51.572,14.665,85.398 c21.704,33.826,56.329,58.67,71.522,48.91c13.054-8.37,14.251-9.14,14.335-9.208c3.45-2.199,4.456-6.812,2.243-10.263 l-15.258-23.76c-2.208-3.451-6.807-4.456-10.263-2.228l-10.785,6.92c-3.145,2.011-7.31,1.371-9.711-1.488 c0,0-7.247-7.424-18.067-24.293c-10.815-16.848-14.552-26.55-14.552-26.55C222.335,194.595,223.494,190.553,226.638,188.541z"/> </g> </g>
</svg>